Simulation
nRows=48
nColumns=15
endheader
time  TH_x TH_y TH_z SC_y  SC_z  SC_x  AC_y  AC_z  AC_x  GH_y  GH_z  GH_yy  EL_x  PS_y
5.745  0.000000  0.000000  0.000000  -52.47742543858229  18.21607987442746  17.062770791461283  46.52579158160484  11.70114508014136  13.299918632884904  35.9146135319591  55.60858877176738  -45.41715411827248  18.58258317285867  120.000000
5.80245  0.000000  0.000000  0.000000  -51.21958830538367  17.562407404241483  14.562328302455382  45.97509703648503  11.360440995247373  12.228948241971242  37.145819194633454  54.732587362852854  -46.07562437364318  18.875312816879212  120.000000
5.8599  0.000000  0.000000  0.000000  -49.73160768334311  16.730173291122263  11.51863148906701  45.30599729232075  10.941102332918883  11.174466698643123  38.47988240283887  53.44387033910889  -46.53819174449208  19.268018998024555  120.000000
5.91735  0.000000  0.000000  0.000000  -48.05553096809725  15.681441205455572  8.058915998316616  44.51521515580286  10.499537688323452  10.218805505701395  39.79171690679242  51.71111557693623  -46.72205493826675  19.67164896966517  120.000000
5.9748  0.000000  0.000000  0.000000  -46.23486191544083  14.401692611907757  4.338551749097474  43.60429946620854  10.125516763468026  9.428227196059614  40.97922891976531  49.51111800934652  -46.592848415502104  19.97784324100871  120.000000
6.03225  0.000000  0.000000  0.000000  -44.31422498249542  12.9055588120119  0.5269374711847877  42.59902239066427  9.924499950492741  8.847448557412203  41.97814510043388  46.84339781091216  -46.177012677576904  20.09210898504355  120.000000
6.089700000000001  0.000000  0.000000  0.000000  -42.34288703071336  11.234811105443297  -3.2079302666326908  41.555462824796514  9.993451183094749  8.502086114455738  42.77656508757578  43.744648841481606  -45.559608474835166  19.961819446006412  120.000000
6.14715  0.000000  0.000000  0.000000  -40.385151092021154  9.45351072293181  -6.716872050219983  40.54989261723817  10.39622457270783  8.402362095484516  43.42357483550857  40.3007749085248  -44.86958459974987  19.585688775649096  120.000000
6.2046  0.000000  0.000000  0.000000  -38.524866146383424  7.647778846598217  -9.890082965893907  39.66774393250557  11.147390351358618  8.539127413412876  44.03589314283205  36.648538907834826  -44.26477923744049  19.001906266393828  120.000000
6.26205  0.000000  0.000000  0.000000  -36.860089588180614  5.913401190848102  -12.665632721887368  38.97717852581525  12.204398342431396  8.88818614024347  44.79608727898627  32.954534786040796  -43.91873897621873  18.27152695984111  120.000000
6.3195  0.000000  0.000000  0.000000  -35.484990940793956  4.341972486583632  -15.024844768314496  38.51034642990358  13.478767135968972  9.414895282542064  45.93441105675345  29.38397133537069  -44.00595081051803  17.469143850630353  120.000000
6.37695  0.000000  0.000000  0.000000  -34.46072076661882  3.0117084115871386  -16.978769118322194  38.267334703235754  14.861878725256014  10.074841512189609  47.69777533258565  26.07323114604995  -44.68652093828478  16.67834533999489  120.000000
6.4344  0.000000  0.000000  0.000000  -33.800921910686505  1.9717173802921872  -18.549818967461434  38.219728973404735  16.24726046717291  10.822314673789203  50.30195240344601  23.113019804936044  -46.08509337738202  15.984118854411332  120.000000
6.49185  0.000000  0.000000  0.000000  -33.474724906078436  1.2392403864313286  -19.76404183405775  38.3230067389303  17.548586195062317  11.612816053758994  53.88236613421271  20.549861197047875  -48.27165753679243  15.460688152999763  120.000000
6.549300000000001  0.000000  0.000000  0.000000  -33.419774374159864  0.8024588727039456  -20.650342496275055  38.52858748911156  18.70803685361515  12.402657407690182  58.45731382792028  18.397780214519813  -51.247261243163635  15.156870587591605  120.000000
6.60675  0.000000  0.000000  0.000000  -33.56123512806506  0.6227552148453591  -21.24124328125978  38.79021845271619  19.695286232183012  13.150175947754596  63.908073544485504  16.650161349984764  -54.93231529724343  15.087331293668587  120.000000
6.6642  0.000000  0.000000  0.000000  -33.82464468599172  0.6442167819871061  -21.5739477224852  39.066695527368154  20.50249064459528  13.816973840783312  69.98131261526378  15.281071804448802  -59.156723844464146  15.235797361109736  120.000000
6.72165  0.000000  0.000000  0.000000  -34.14623240493778  0.8051573530394522  -21.68978212647867  39.321342925725546  21.136061583200675  14.3722368394117  76.33004856443314  14.241244938956513  -63.67477935959046  15.563395917326076  120.000000
6.7791  0.000000  0.000000  0.000000  -34.47868227170879  1.0467925887075866  -21.633266104024745  39.52952452266235  21.609327790949386  14.794419637767367  82.59658293649555  13.465390949971145  -68.21900588936869  16.01237676907502  120.000000
6.83655  0.000000  0.000000  0.000000  -34.78682446322224  1.317362978705955  -21.44770231289406  39.68441005352477  21.93654320299478  15.071523524454632  88.49722711009836  12.886013415776262  -72.5627739677275  16.506555396790578  120.000000
6.894  0.000000  0.000000  0.000000  -35.04852663806672  1.5781153639788679  -21.16941795262075  39.79405286579859  22.129280626920526  15.203502314234548  93.86660768972374  12.4453797501471  -76.56299955711363  16.959177464232873  120.000000
6.95145  0.000000  0.000000  0.000000  -35.249559354921836  1.8059353021094124  -20.82620896907121  39.877102729701065  22.20055959717964  15.199214077912456  98.64515588440916  12.09861390914606  -80.15990440733421  17.291188346880084  120.000000
7.008900000000001  0.000000  0.000000  0.000000  -35.383155120723806  1.9889053771629033  -20.436764710189397  39.95266967019097  22.167027968904147  15.074264851620734  102.84167021473266  11.812189076758964  -83.35531915680254  17.456582396458447  120.000000
7.06635  0.000000  0.000000  0.000000  -35.457530775854394  2.1229327193109864  -20.010776743755542  40.029917123452236  22.04651088280325  14.850764453699972  106.49904406160036  11.562343717199182  -86.19061558302978  17.4641538212536  120.000000
7.1238  0.000000  0.000000  0.000000  -35.49320316512378  2.2099579974194574  -19.551870352995465  40.10842225735544  21.858098732089584  14.55161243218434  109.66896028731664  11.33257291791878  -88.72489701556937  17.37441157595508  120.000000
7.18125  0.000000  0.000000  0.000000  -35.51372471177569  2.2585907049332086  -19.061351294194395  40.188704451597225  21.62336837984723  14.193222159898014  112.3886169048389  11.11480926884986  -91.00701334271574  17.27245628472176  120.000000
7.2387  0.000000  0.000000  0.000000  -35.53759072906122  2.2831957867080175  -18.540021250471387  40.277039147793154  21.362148539100602  13.787137824825095  114.67687509194963  10.907454752753148  -93.06077446925791  17.23345158128106  120.000000
7.29615  0.000000  0.000000  0.000000  -35.57540616085742  2.294957886786931  -17.988093535967618  40.37852965150748  21.085554262095847  13.347849947866827  116.55550488076126  10.706689668433192  -94.89567481133881  17.29429470196658  120.000000
7.3536  0.000000  0.000000  0.000000  -35.62812985147476  2.299758103437895  -17.406201533199784  40.495184616690175  20.795511769379956  12.893773900236582  118.0667314814166  10.50344601915478  -96.52233866308043  17.448094044427105  120.000000
7.41105  0.000000  0.000000  0.000000  -35.68794218475179  2.303290129432616  -16.797869780157836  40.631666183367955  20.4906013646142  12.440191380713104  119.26108954955801  10.288163966336583  -97.9486159549014  17.661345570320176  120.000000
7.468500000000001  0.000000  0.000000  0.000000  -35.742030065925256  2.31167222047275  -16.170647864996326  40.79522983084161  20.17009977166691  11.994803229891376  120.1885461128567  10.053126995572288  -99.1817521595334  17.89629750019874  120.000000
7.52595  0.000000  0.000000  0.000000  -35.780712587981824  2.32881486502475  -15.534138237410621  40.98856187670631  19.833114288725376  11.560996221943327  120.90201873267662  9.793043155097076  -100.24079654727736  18.126645645487365  120.000000
7.5834  0.000000  0.000000  0.000000  -35.802035502434954  2.355262088933444  -14.897461208797903  41.206577650392326  19.478218440633206  11.141236201215108  121.45689142866047  9.506283562218007  -101.15992858087172  18.3432492339357  120.000000
7.64085  0.000000  0.000000  0.000000  -35.81023440320259  2.3893912083648265  -14.267910336167269  41.439726576389624  19.1047214329087  10.737443496868552  121.90644970730848  9.195758904355612  -101.98205178656876  18.54953333524802  120.000000
7.6983  0.000000  0.000000  0.000000  -35.81192302715383  2.428992624346119  -13.650632758312664  41.678842328339464  18.7140285870219  10.350039651162055  122.2979349298363  8.868566739917096  -102.75055132754576  18.753209794423018  120.000000
7.75575  0.000000  0.000000  0.000000  -35.81285660344835  2.471437777489209  -13.048650979532125  41.91793724502094  18.309820775151792  9.977659145644513  122.67131682717475  8.534657596971973  -103.50403328489433  18.959338728502615  120.000000
7.8132  0.000000  0.000000  0.000000  -35.81705067910873  2.51311712409747  -12.462793816247961  42.15388957068419  17.897071112434325  9.618062808428842  123.0600572993981  8.205026363881077  -104.27421097712272  19.16773171831371  120.000000
7.87065  0.000000  0.000000  0.000000  -35.82643553350107  2.5502127497578644  -11.892109948974234  42.38583794267478  17.48121639530699  9.268194221585532  123.4893373233991  7.890239902362471  -105.08224427275589  19.37430970880263  120.000000
7.928100000000001  0.000000  0.000000  0.000000  -35.842011140934304  2.5789185093879072  -11.33427278768351  42.61348230743489  17.067618966672157  8.923788356797328  123.97132370808477  7.598789794527781  -105.93318672251905  19.575466728984356  120.000000
7.98555  0.000000  0.000000  0.000000  -35.86602722533165  2.5958560424420747  -10.785713235977086  42.83295857328271  16.66009185764318  8.580567131184443  124.50833852375554  7.3343677251465795  -106.81885630148096  19.77272919046209  120.000000
8.043  0.000000  0.000000  0.000000  -35.89942150755921  2.5997536957692624  -10.242916901853322  43.03639820916966  16.261615915003276  8.232680610256196  125.09748318734749  7.093337409034774  -107.72343487186747  19.97514140435423  120.000000
8.10045  0.000000  0.000000  0.000000  -35.94035448828027  2.591902984254697  -9.704292901900896  43.21332629013603  15.874855609354393  7.872622758265322  125.72534403098673  6.865657488038329  -108.6229991823657  20.196735969414103  120.000000
8.1579  0.000000  0.000000  0.000000  -35.98135367286778  2.5758984148457724  -9.17199475151965  43.35002566490199  15.499609492115583  7.495731714421341  126.3775753503867  6.637035322120907  -109.50028130835072  20.448004047981936  120.000000
8.21535  0.000000  0.000000  0.000000  -36.00996223850429  2.5557055480169435  -8.654104031927183  43.428611647798654  15.133535487110093  7.101229038914721  127.02346528404513  6.390532470775624  -110.33525056265914  20.722518530958958  120.000000
8.2728  0.000000  0.000000  0.000000  -36.01204513420579  2.5375772044595433  -8.168195733456054  43.43062895043573  14.77477547994734  6.688225720316965  127.57690122063062  6.111557610927507  -111.06872267737315  20.987750447000295  120.000000
8.33025  0.000000  0.000000  0.000000  -35.97481919358904  2.530622570211986  -7.742031597012172  43.33958325940039  14.422245194090449  6.256960124978448  127.8614626030007  5.795102351632637  -111.560484287111  21.189779572242305  120.000000
8.3877  0.000000  0.000000  0.000000  -35.88751621224008  2.5369702886088685  -7.407662434807342  43.14214248950932  14.077911672594468  5.813015026039702  127.55504796663993  5.450711812967417  -111.51877467011766  21.27335905851856  120.000000
8.44515  0.000000  0.000000  0.000000  -35.73866369439679  2.548664773804448  -7.194310365800765  42.83754400400732  13.748497607820442  5.36625151549929  126.11869710733014  5.109184357890716  -110.4099231412687  21.21036482387128  120.000000
